#!OML:ASF Y:\EmotionMaleHayes\Project 1\Capture day 1\Session 1\Male1.ASF
:FULLY-SPECIFIED
:DEGREES
239
root 46.8101 16.7593 -1.43245 423.146 85.8017 432.154
lowerback 11.6537 0.215642 -7.04773
upperback 1.77776 -0.552631 -0.751024
thorax -4.60667 -0.129585 3.2672
lowerneck -27.3459 2.27594 0.629791
upperneck 19.2053 3.02934 -0.519716
head 10.6756 1.36201 0.215629
rclavicle 6.39625e-015 -3.57812e-015
rhumerus -72.6599 6.38091 -89.5787
rradius 67.8831
rwrist -28.5925
rhand -25.725 -36.5219
rfingers 7.12502
rthumb 0.81132 -66.5001
lclavicle 6.39625e-015 -3.57812e-015
lhumerus -38.3244 -38.1342 97.6888
lradius 93.7695
lwrist 18.7145
lhand -29.4709 -25.4657
lfingers 7.12502
lthumb -2.80654 4.49558
rfemur -6.30951 0.992902 16.1662
rtibia 23.6849
rfoot -8.52711 -6.22951
rtoes 25.4097
lfemur 6.90508 5.61246 -20.4053
ltibia 37.6118
lfoot -17.6063 -0.822616
ltoes -12.5193
240
root 46.9009 16.6834 -1.4019 412.573 86.6798 421.741
lowerback 11.7536 0.292822 -5.98978
upperback 2.14329 -0.290749 -0.454448
thorax -4.30967 -0.0297029 2.94347
lowerneck -27.888 2.10096 0.284405
upperneck 18.8237 2.7825 -0.0113188
head 10.6129 1.28894 0.416682
rclavicle -4.08751e-015 -1.85864e-014
rhumerus -71.539 6.42155 -89.8607
rradius 67.4674
rwrist -28.5795
rhand -25.7054 -36.5331
rfingers 7.12502
rthumb 0.830286 -66.5112
lclavicle -4.08751e-015 -1.85864e-014
lhumerus -37.4378 -37.8918 97.513
lradius 92.4071
lwrist 17.9461
lhand -29.3781 -25.5056
lfingers 7.12502
lthumb -2.71688 4.45686
rfemur -6.73728 1.7828 17.8073
rtibia 25.0364
rfoot -9.13936 -6.92093
rtoes 24.8098
lfemur 7.11539 6.01322 -18.5086
ltibia 38.4903
lfoot -17.6257 -1.60125
ltoes -13.5449
241
root 46.9639 16.6244 -1.39884 406.155 87.5144 415.319
lowerback 12.5656 0.240998 -4.71364
upperback 2.0427 -0.246877 -0.362262
thorax -4.87615 -0.010258 2.31843
lowerneck -28.2815 2.15044 0.764669
upperneck 18.8749 2.7844 -0.524696
head 10.7159 1.25551 0.157271
rclavicle 4.77239e-015 -5.96354e-015
rhumerus -70.8206 6.38968 -90.2744
rradius 66.9107
rwrist -28.4553
rhand -25.6604 -36.7339
rfingers 7.12502
rthumb 0.873784 -66.7119
lclavicle 4.77239e-015 -5.96354e-015
lhumerus -37.3349 -37.5339 97.7862
lradius 90.9473
lwrist 17.2106
lhand -29.2086 -25.7379
lfingers 7.12502
lthumb -2.5532 4.22652
rfemur -7.27476 1.53034 18.8115
rtibia 26.5173
rfoot -10.0706 -6.56956
rtoes 24.8404
lfemur 6.87665 6.05789 -17.2381
ltibia 39.5136
lfoot -17.2028 -2.12964
ltoes -13.0524
242
root 47.0225 16.585 -1.3814 349.977 88.4158 359.159
lowerback 12.7819 0.115567 -2.67203
upperback 2.45252 -0.0968704 0.256706
thorax -4.58019 0.0300372 1.79054
lowerneck -28.8674 2.25704 1.10598
upperneck 18.3193 2.88425 -0.959924
head 10.6238 1.26784 -0.0375499
rclavicle -5.684e-016 7.95139e-016
rhumerus -69.1646 6.68702 -90.4637
rradius 66.2913
rwrist -28.1443
rhand -25.3683 -37.0352
rfingers 7.12502
rthumb 1.15583 -67.0118
lclavicle -5.684e-016 7.95139e-016
lhumerus -36.1982 -36.717 97.5353
lradius 89.1324
lwrist 15.7172
lhand -29.0605 -26.2931
lfingers 7.12502
lthumb -2.41016 3.67299
rfemur -7.51793 1.51915 21.4361
rtibia 27.5527
rfoot -10.8577 -6.41572
rtoes 25.2859
lfemur 6.63759 6.35525 -14.2342
ltibia 40.6077
lfoot -16.5574 -2.65033
ltoes -13.0632
243
root 47.091 16.5538 -1.37912 312.664 87.7824 321.643
lowerback 13.193 0.0587754 -1.06196
upperback 2.34706 0.0555206 0.563563
thorax -4.92597 0.0878336 1.178
lowerneck -28.9483 2.26178 1.0643
upperneck 17.871 2.84325 -0.738613
head 10.4668 1.27753 0.0406038
rclavicle 2.49413e-015 2.48481e-015
rhumerus -68.1415 6.84326 -90.7568
rradius 65.726
rwrist -27.5614
rhand -24.7203 -37.9641
rfingers 7.12502
rthumb 1.78171 -67.9364
lclavicle 2.49413e-015 2.48481e-015
lhumerus -36.0587 -35.5424 97.7123
lradius 87.0695
lwrist 13.0848
lhand -28.7668 -26.9059
lfingers 7.12502
lthumb -2.12651 3.06328
rfemur -7.84755 1.13353 23.0484
rtibia 28.4567
rfoot -11.4914 -5.69228
rtoes 27.7743
lfemur 6.1701 6.68973 -12.2781
ltibia 41.6925
lfoot -16.0338 -3.09725
ltoes -14.939
244
root 47.1577 16.5291 -1.36816 316.377 88.2499 325.02
lowerback 12.7589 0.0537943 -1.48677
upperback 2.63165 0.000440778 0.496007
thorax -4.38615 0.0632737 1.35487
lowerneck -29.8744 2.11743 1.30726
upperneck 17.9508 2.61524 -1.06553
head 10.6585 1.14258 -0.148389
rclavicle 1.98785e-016 4.47266e-015
rhumerus -66.282 7.24503 -90.9185
rradius 65.0112
rwrist -26.86
rhand -24.0961 -39.3591
rfingers 7.12502
rthumb 2.38452 -69.3255
lclavicle 1.98785e-016 4.47266e-015
lhumerus -35.1513 -34.2333 97.5018
lradius 84.6236
lwrist 10.6294
lhand -28.6097 -27.7731
lfingers 7.12502
lthumb -1.97479 2.19753
rfemur -8.21859 0.533295 22.4808
rtibia 28.7624
rfoot -11.45 -5.41785
rtoes 26.4442
lfemur 5.35997 6.78115 -12.5952
ltibia 42.905
lfoot -15.5574 -3.54547
ltoes -16.9709
245
root 47.2086 16.5134 -1.36566 321.669 88.7805 329.646
lowerback 12.4308 -0.0282857 -1.96702
upperback 2.48887 -0.173487 0.512558
thorax -4.34742 -0.0194287 1.67081
lowerneck -29.5415 2.14107 1.10394
upperneck 17.3744 2.68466 -0.885964
head 10.3847 1.18878 -0.0438691
rclavicle -1.42876e-015 8.05078e-015
rhumerus -64.8738 7.85886 -90.9825
rradius 64.3791
rwrist -26.2626
rhand -23.4895 -40.6357
rfingers 7.12502
rthumb 2.97033 -70.5947
lclavicle -1.42876e-015 8.05078e-015
lhumerus -34.8736 -32.625 97.778
lradius 81.9433
lwrist 8.44177
lhand -28.7384 -28.6326
lfingers 7.12502
lthumb -2.09905 1.33687
rfemur -9.00674 -0.0446317 21.8468
rtibia 29.2574
rfoot -11.5982 -5.22682
rtoes 24.8082
lfemur 3.92124 6.73924 -13.084
ltibia 44.3611
lfoot -15.0905 -3.76863
ltoes -19.0548
